#!OML:ASF F:\VICON\USERDATA\INSTALL\rory3\rory3.ASF
:FULLY-SPECIFIED
:DEGREES
588
root 3.24188 15.6235 1.88496 -5.60182 -26.2661 -11.3101
lowerback 9.13952 0.555664 2.56385
upperback 1.87976 1.21801 8.77828
thorax -3.31697 0.581513 7.68424
lowerneck 1.40448 -10.2549 -16.2694
upperneck 33.5067 -18.4468 12.8056
head 14.0418 -9.25007 5.53359
rclavicle -5.92378e-014 -4.29375e-014
rhumerus -29.1363 -19.5635 -52.232
rradius 66.9451
rwrist -16.0222
rhand -23.145 24.5056
rfingers 7.12502
rthumb 3.30304 -5.44858
lclavicle -5.92378e-014 -4.29375e-014
lhumerus -30.9106 33.7696 12.8904
lradius 49.0076
lwrist 2.90577
lhand -16.7487 40.664
lfingers 7.12502
lthumb 9.47778 70.4308
rfemur 2.48008 12.8757 -4.84007
rtibia 83.5378
rfoot 20.2337 -19.7441
rtoes 46.0485
lfemur -36.0773 22.872 -18.4804
ltibia 68.3205
lfoot -20.5792 5.94247
ltoes 18.2243
589
root 3.25041 15.5896 2.05123 -6.43566 -26.4186 -10.5698
lowerback 9.43345 0.439899 2.70172
upperback 2.15922 1.06339 8.48366
thorax -3.16066 0.496336 7.29739
lowerneck 1.09833 -10.1886 -15.987
upperneck 33.9728 -18.2289 12.2794
head 14.1759 -9.15148 5.30081
rclavicle -4.2192e-014 4.13472e-014
rhumerus -30.8009 -20.1671 -52.5213
rradius 65.7289
rwrist -16.2852
rhand -22.4828 23.9367
rfingers 7.12502
rthumb 3.94256 -6.00657
lclavicle -4.2192e-014 4.13472e-014
lhumerus -31.5251 34.2544 14.8511
lradius 49.7186
lwrist 4.52823
lhand -16.2678 40.6158
lfingers 7.12502
lthumb 9.94176 70.3611
rfemur -1.0889 12.021 -6.04769
rtibia 83.7528
rfoot 17.7967 -20.8813
rtoes 45.2114
lfemur -34.9015 22.8983 -19.128
ltibia 68.6303
lfoot -21.6072 6.35591
ltoes 18.6711
590
root 3.25852 15.5488 2.203 -7.26809 -26.4132 -9.79709
lowerback 9.83215 0.210467 2.73153
upperback 2.36872 0.762819 8.23382
thorax -3.12586 0.341579 7.04556
lowerneck 0.894736 -10.0504 -15.8403
upperneck 34.4356 -17.8884 11.7083
head 14.277 -9.02847 5.09743
rclavicle 5.725e-014 1.11319e-014
rhumerus -32.3512 -20.8494 -52.801
rradius 64.4838
rwrist -16.4101
rhand -21.2782 23.799
rfingers 7.12502
rthumb 5.10571 -6.11953
lclavicle 5.725e-014 1.11319e-014
lhumerus -32.1885 34.6831 16.8253
lradius 50.1149
lwrist 5.82597
lhand -15.6813 40.8326
lfingers 7.12502
lthumb 10.5076 70.55
rfemur -4.62961 10.5761 -7.19765
rtibia 83.4526
rfoot 13.9875 -21.8121
rtoes 42.558
lfemur -33.8808 22.7141 -19.8494
ltibia 68.9357
lfoot -22.5033 6.79987
ltoes 18.5627
591
root 3.26237 15.5063 2.33657 -8.12601 -26.5063 -8.97676
lowerback 10.3337 -0.0254349 2.61253
upperback 2.58629 0.446041 8.01919
thorax -3.14197 0.180182 6.92518
lowerneck 0.860675 -9.82324 -15.8616
upperneck 34.6685 -17.416 11.2529
head 14.2456 -8.86855 4.99542
rclavicle -3.97072e-014 -6.36111e-015
rhumerus -33.7801 -21.4174 -53.0907
rradius 63.213
rwrist -16.0405
rhand -19.8272 24.1618
rfingers 7.12502
rthumb 6.50665 -5.71824
lclavicle -3.97072e-014 -6.36111e-015
lhumerus -32.9264 35.0029 18.7702
lradius 50.212
lwrist 6.92706
lhand -15.1706 40.6331
lfingers 7.12502
lthumb 11.0002 70.3249
rfemur -8.23861 8.92187 -8.05231
rtibia 82.6105
rfoot 12.0421 -23.4164
rtoes 43.6642
lfemur -32.9273 22.5542 -20.5575
ltibia 69.1774
lfoot -23.1461 7.27205
ltoes 17.9569
592
root 3.26248 15.4592 2.46762 -9.31426 -26.397 -7.61914
lowerback 11.0164 -0.167333 2.17775
upperback 2.51924 0.256309 7.68729
thorax -3.57185 0.0940802 6.85479
lowerneck 1.82073 -9.51311 -16.4163
upperneck 34.6135 -17.0106 11.1806
head 13.9941 -8.81854 5.17896
rclavicle 4.27387e-015 9.54166e-015
rhumerus -36.1109 -21.5445 -52.6134
rradius 62.1269
rwrist -15.3174
rhand -18.5763 24.7934
rfingers 7.12502
rthumb 7.71408 -5.04594
lclavicle 4.27387e-015 9.54166e-015
lhumerus -33.3982 34.5586 21.1923
lradius 50.1522
lwrist 7.81964
lhand -14.3692 40.2422
lfingers 7.12502
lthumb 11.7731 69.8913
rfemur -11.4753 7.14387 -9.01492
rtibia 81.0758
rfoot 10.5646 -24.8953
rtoes 45.7247
lfemur -31.7627 22.2668 -21.7961
ltibia 69.3253
lfoot -23.6197 7.7857
ltoes 17.0583
593
root 3.26275 15.4226 2.60532 -10.8634 -25.9812 -5.80284
lowerback 11.67 -0.426145 1.23941
upperback 2.78812 -0.194788 7.15805
thorax -3.60169 -0.126191 6.89612
lowerneck 1.71949 -9.34055 -16.4988
upperneck 34.7605 -16.6423 10.8679
head 13.9852 -8.69395 5.11986
rclavicle -6.21699e-014 -3.81667e-014
rhumerus -37.8294 -21.6895 -52.6131
rradius 61.0523
rwrist -14.5201
rhand -18.1476 25.4034
rfingers 7.12502
rthumb 8.12784 -4.42028
lclavicle -6.21699e-014 -3.81667e-014
lhumerus -33.6596 34.7327 23.4611
lradius 49.8593
lwrist 8.06025
lhand -13.9211 40.2116
lfingers 7.12502
lthumb 12.2051 69.8355
rfemur -14.0886 5.15465 -10.0857
rtibia 78.7541
rfoot 9.22178 -26.8294
rtoes 47.5213
lfemur -30.1681 21.894 -23.4865
ltibia 69.2909
lfoot -24.1344 8.21914
ltoes 16.1754
594
root 3.2563 15.3801 2.73975 -12.3795 -25.6114 -4.31106
lowerback 12.2229 -0.6517 0.574079
upperback 3.32153 -0.604526 6.63037
thorax -3.29777 -0.339702 6.77167
lowerneck 1.33296 -9.26514 -16.2622
upperneck 34.7608 -16.3803 10.5824
head 13.9551 -8.55612 4.98324
rclavicle 4.52732e-014 1.59028e-015
rhumerus -39.2664 -21.9404 -52.9384
rradius 60.0329
rwrist -14.0169
rhand -18.2033 25.9838
rfingers 7.12502
rthumb 8.0741 -3.84193
lclavicle 4.52732e-014 1.59028e-015
lhumerus -33.2561 35.2761 26.0552
lradius 49.3259
lwrist 8.01587
lhand -14.0489 40.1205
lfingers 7.12502
lthumb 12.0819 69.7516
rfemur -16.1931 3.32377 -10.4299
rtibia 75.6687
rfoot 5.65207 -29.3646
rtoes 50.5555
lfemur -28.5317 21.6622 -24.7437
ltibia 69.2529
lfoot -24.744 8.35608
ltoes 16.3288
595
root 3.25212 15.3631 2.85657 -13.0759 -25.39 -3.82158
lowerback 12.5559 -0.888605 0.686438
upperback 3.75097 -0.930087 6.40299
thorax -2.99732 -0.515234 6.50905
lowerneck 1.04324 -9.16267 -16.0936
upperneck 34.5627 -16.1156 10.4808
head 13.8413 -8.41063 4.93642
rclavicle 2.03257e-014 -7.95139e-015
rhumerus -40.6143 -22.0936 -53.3753
rradius 59.0752
rwrist -13.4449
rhand -18.9042 26.0794
rfingers 7.12502
rthumb 7.39764 -3.77123
lclavicle 2.03257e-014 -7.95139e-015
lhumerus -32.641 35.9056 28.796
lradius 48.6577
lwrist 7.63752
lhand -13.2032 39.2132
lfingers 7.12502
lthumb 12.8974 68.7946
rfemur -19.1083 1.46233 -9.07296
rtibia 72.0853
rfoot 4.51664 -31.592
rtoes 50.266
lfemur -27.5685 21.4413 -25.1185
ltibia 69.2734
lfoot -25.1353 8.43366
ltoes 16.4713
